<svg width="32" height="32" viewBox="0 0 32 32" fill="none" xmlns="http://www.w3.org/2000/svg">
<path d="M15.9999 24.6667C12.8799 24.6667 10.3333 22.12 10.3333 19C10.3333 18.4533 10.7866 18 11.3333 18C11.8799 18 12.3333 18.4533 12.3333 19C12.3333 21.0267 13.9733 22.6667 15.9999 22.6667C18.0266 22.6667 19.6666 21.0267 19.6666 19C19.6666 18.4533 20.1199 18 20.6666 18C21.2133 18 21.6666 18.4533 21.6666 19C21.6666 22.12 19.1199 24.6667 15.9999 24.6667Z" fill="white"/>
<path d="M6.92001 8.50668C6.66667 8.50668 6.40001 8.40001 6.21334 8.21335C5.82667 7.82668 5.82667 7.18668 6.21334 6.80001L11.0533 1.96001C11.44 1.57335 12.08 1.57335 12.4667 1.96001C12.8533 2.34668 12.8533 2.98668 12.4667 3.37335L7.62667 8.21335C7.42667 8.40001 7.17334 8.50668 6.92001 8.50668Z" fill="white"/>
<path d="M25.0801 8.50668C24.8267 8.50668 24.5734 8.41335 24.3734 8.21335L19.5334 3.37335C19.1467 2.98668 19.1467 2.34668 19.5334 1.96001C19.9201 1.57335 20.5601 1.57335 20.9467 1.96001L25.7867 6.80001C26.1734 7.18668 26.1734 7.82668 25.7867 8.21335C25.6001 8.40001 25.3334 8.50668 25.0801 8.50668Z" fill="white"/>
<path d="M26.9467 14.1333C26.8534 14.1333 26.7601 14.1333 26.6667 14.1333H26.3601H5.33341C4.40008 14.1467 3.33341 14.1467 2.56008 13.3733C1.94675 12.7733 1.66675 11.84 1.66675 10.4667C1.66675 6.79999 4.34675 6.79999 5.62675 6.79999H26.3734C27.6534 6.79999 30.3334 6.79999 30.3334 10.4667C30.3334 11.8533 30.0534 12.7733 29.4401 13.3733C28.7467 14.0667 27.8134 14.1333 26.9467 14.1333ZM5.62675 12.1333H26.6801C27.2801 12.1467 27.8401 12.1467 28.0267 11.96C28.1201 11.8667 28.3201 11.5467 28.3201 10.4667C28.3201 8.95999 27.9467 8.79999 26.3601 8.79999H5.62675C4.04008 8.79999 3.66675 8.95999 3.66675 10.4667C3.66675 11.5467 3.88008 11.8667 3.96008 11.96C4.14675 12.1333 4.72008 12.1333 5.30675 12.1333H5.62675Z" fill="white"/>
<path d="M19.8534 30.3333H11.8134C7.04008 30.3333 5.97341 27.4933 5.56008 25.0267L3.68008 13.4933C3.58675 12.9467 3.96008 12.44 4.50675 12.3467C5.04008 12.2533 5.56008 12.6267 5.65341 13.1733L7.53341 24.6933C7.92008 27.0533 8.72008 28.3333 11.8134 28.3333H19.8534C23.2801 28.3333 23.6667 27.1333 24.1067 24.8133L26.3467 13.1467C26.4534 12.6 26.9734 12.24 27.5201 12.36C28.0667 12.4667 28.4134 12.9867 28.3067 13.5333L26.0667 25.2C25.5467 27.9067 24.6801 30.3333 19.8534 30.3333Z" fill="white"/>
</svg>
