<svg width="23" height="27" viewBox="0 0 23 27" fill="none" xmlns="http://www.w3.org/2000/svg">
<path d="M20.1525 23.83L20.961 6.69748H22.1325C22.613 6.69748 23 6.29898 23 5.81848C23 5.33798 22.613 4.92748 22.1325 4.92748H17.0115V3.16998C17.0115 1.49398 15.875 0.40448 14.0705 0.40448H9.68749C7.88249 0.40448 6.75749 1.49448 6.75749 3.16948V4.92748H1.66049C1.19199 4.92748 0.781494 5.33748 0.781494 5.81848C0.781494 6.29848 1.19149 6.69748 1.66049 6.69748H2.83249L3.64049 23.842C3.72249 25.5295 4.83549 26.5955 6.52349 26.5955H17.2695C18.945 26.5955 20.07 25.5175 20.152 23.8305M8.63249 3.28698C8.63249 2.61898 9.12499 2.15048 9.82799 2.15048H13.9415C14.6565 2.15048 15.1485 2.61898 15.1485 3.28698V4.92748H8.63249V3.28698ZM6.69899 24.838C6.01899 24.838 5.51549 24.322 5.48049 23.643L4.66049 6.69748H19.0855L18.3125 23.6425C18.2775 24.334 17.785 24.8375 17.0935 24.8375L6.69899 24.838ZM15.371 22.7755C15.7575 22.7755 16.051 22.459 16.0625 22.0135L16.414 9.63848C16.4255 9.19348 16.121 8.86498 15.7225 8.86498C15.3595 8.86498 15.0545 9.20498 15.0425 9.62698L14.6915 22.0135C14.6795 22.4355 14.9725 22.7755 15.371 22.7755ZM8.42199 22.7755C8.82049 22.7755 9.113 22.4355 9.10149 22.0135L8.74999 9.62698C8.73799 9.20498 8.42199 8.86498 8.05849 8.86498C7.65999 8.86498 7.36699 9.19348 7.37849 9.63848L7.74199 22.0135C7.75399 22.459 8.03499 22.7755 8.42199 22.7755ZM12.6055 22.0135V9.62698C12.6055 9.20498 12.289 8.86498 11.902 8.86498C11.5155 8.86498 11.187 9.20498 11.187 9.62698V22.0135C11.187 22.4355 11.5155 22.7755 11.902 22.7755C12.277 22.7755 12.6055 22.4355 12.6055 22.0135Z" fill="black"/>
</svg>
