<svg width="25" height="24" viewBox="0 0 25 24" fill="none" xmlns="http://www.w3.org/2000/svg">
<path d="M24.4921 12.0004C24.4921 18.0612 20.0008 23.0717 14.1663 23.8848C13.6208 23.9605 13.0626 24 12.496 24C11.8421 24 11.1999 23.9479 10.5745 23.847C4.86266 22.9271 0.5 17.9729 0.5 12.0004C0.5 5.37294 5.87136 0 12.4969 0C19.1224 0 24.4938 5.37294 24.4938 12.0004H24.4921Z" fill="black"/>
<path d="M14.1661 9.63588V12.25H17.399L16.887 15.7715H14.1661V23.8847C13.6205 23.9604 13.0624 23.9999 12.4958 23.9999C11.8418 23.9999 11.1996 23.9478 10.5742 23.8469V15.7715H7.59265V12.25H10.5742V9.0515C10.5742 7.06713 12.1823 5.45776 14.1669 5.45776V5.45945C14.1728 5.45945 14.1778 5.45776 14.1837 5.45776H17.3998V8.50328H15.2983C14.6738 8.50328 14.1669 9.0103 14.1669 9.63504L14.1661 9.63588Z" fill="white"/>
</svg>
