<svg width="149" height="155" viewBox="0 0 149 155" fill="none" xmlns="http://www.w3.org/2000/svg">
<path d="M108.117 147.895C120.86 140.288 128.652 124.035 135.956 107.24C143.066 90.4008 149.495 72.9767 148.426 54.4821C147.596 35.8279 139.121 15.8549 124.695 6.75952C110.269 -2.33588 89.3639 -0.0301404 69.6819 4.05808C50.1935 8.19057 31.7342 14.0613 19.661 26.7597C7.54113 39.6622 1.66046 59.1441 0.660699 78.6684C-0.385717 98.3967 3.25512 118.123 13.9906 130.884C24.7727 143.44 42.6961 148.826 60.3114 151.995C77.9733 154.959 95.5208 155.751 108.117 147.895Z" fill="url(#paint0_linear_2_2233)"/>
<defs>
<linearGradient id="paint0_linear_2_2233" x1="21.2413" y1="-18.9132" x2="142.843" y2="155.242" gradientUnits="userSpaceOnUse">
<stop stop-color="#F6C8BC"/>
<stop offset="1" stop-color="#FCEDE9"/>
</linearGradient>
</defs>
</svg>
