<svg width="25" height="24" viewBox="0 0 25 24" fill="none" xmlns="http://www.w3.org/2000/svg">
<path d="M12.5176 0H12.4629C5.85255 0 0.493774 5.36035 0.493774 11.9727V12.0273C0.493774 18.6397 5.85255 24 12.4629 24H12.5176C19.1279 24 24.4867 18.6397 24.4867 12.0273V11.9727C24.4867 5.36035 19.1279 0 12.5176 0Z" fill="black"/>
<path d="M16.2018 4.88257H8.77771C6.72667 4.88257 5.05811 6.55163 5.05811 8.60327V15.3972C5.05811 17.4489 6.72667 19.1179 8.77771 19.1179H16.2018C18.2528 19.1179 19.9214 17.4489 19.9214 15.3972V8.60327C19.9214 6.55163 18.2528 4.88257 16.2018 4.88257ZM6.37027 8.60327C6.37027 7.27559 7.45042 6.19511 8.77771 6.19511H16.2018C17.5291 6.19511 18.6092 7.27559 18.6092 8.60327V15.3972C18.6092 16.7249 17.5291 17.8054 16.2018 17.8054H8.77771C7.45042 17.8054 6.37027 16.7249 6.37027 15.3972V8.60327Z" fill="white"/>
<path d="M12.4897 15.4602C14.3969 15.4602 15.9495 13.908 15.9495 11.9993C15.9495 10.0906 14.3978 8.53845 12.4897 8.53845C10.5815 8.53845 9.02979 10.0906 9.02979 11.9993C9.02979 13.908 10.5815 15.4602 12.4897 15.4602ZM12.4897 9.85184C13.674 9.85184 14.6374 10.8154 14.6374 12.0002C14.6374 13.1849 13.674 14.1485 12.4897 14.1485C11.3053 14.1485 10.3419 13.1849 10.3419 12.0002C10.3419 10.8154 11.3053 9.85184 12.4897 9.85184Z" fill="white"/>
<path d="M16.2699 9.09777C16.7835 9.09777 17.2021 8.67987 17.2021 8.16528C17.2021 7.65069 16.7843 7.23279 16.2699 7.23279C15.7554 7.23279 15.3376 7.65069 15.3376 8.16528C15.3376 8.67987 15.7554 9.09777 16.2699 9.09777Z" fill="white"/>
</svg>
