<svg width="26" height="25" viewBox="0 0 26 25" fill="none" xmlns="http://www.w3.org/2000/svg">
<path d="M12.8205 22.9167C11.3604 22.9167 9.98038 22.6432 8.68052 22.0963C7.38066 21.5495 6.24551 20.8029 5.27507 19.8568C4.30463 18.9106 3.53896 17.8038 2.97806 16.5365C2.41717 15.2691 2.13672 13.9236 2.13672 12.5C2.13672 11.059 2.41717 9.7092 2.97806 8.45052C3.53896 7.19183 4.30463 6.0894 5.27507 5.14322C6.24551 4.19704 7.38066 3.45052 8.68052 2.90364C9.98038 2.35677 11.3604 2.08333 12.8205 2.08333C14.2984 2.08333 15.6828 2.35677 16.9738 2.90364C18.2647 3.45052 19.3954 4.19704 20.3659 5.14322C21.3363 6.0894 22.102 7.19183 22.6629 8.45052C23.2238 9.7092 23.5042 11.059 23.5042 12.5C23.5042 13.9236 23.2238 15.2691 22.6629 16.5365C22.102 17.8038 21.3363 18.9106 20.3659 19.8568C19.3954 20.8029 18.2647 21.5495 16.9738 22.0963C15.6828 22.6432 14.2984 22.9167 12.8205 22.9167ZM12.8205 20.7812C13.2834 20.1562 13.6841 19.5052 14.0224 18.8281C14.3607 18.151 14.6367 17.4305 14.8504 16.6667H10.7906C11.0042 17.4305 11.2802 18.151 11.6186 18.8281C11.9569 19.5052 12.3575 20.1562 12.8205 20.7812ZM10.0427 20.3646C9.72219 19.7917 9.44174 19.197 9.20136 18.5807C8.96097 17.9644 8.76065 17.3264 8.60039 16.6667H5.44868C5.96507 17.5347 6.61054 18.2899 7.38512 18.9323C8.15969 19.5746 9.04555 20.0521 10.0427 20.3646ZM15.5983 20.3646C16.5954 20.0521 17.4813 19.5746 18.2558 18.9323C19.0304 18.2899 19.6759 17.5347 20.1923 16.6667H17.0406C16.8803 17.3264 16.68 17.9644 16.4396 18.5807C16.1992 19.197 15.9188 19.7917 15.5983 20.3646ZM4.54057 14.5833H8.17304C8.11962 14.2361 8.07956 13.8932 8.05285 13.5547C8.02614 13.2161 8.01279 12.8646 8.01279 12.5C8.01279 12.1354 8.02614 11.7838 8.05285 11.4453C8.07956 11.1068 8.11962 10.7639 8.17304 10.4167H4.54057C4.45153 10.7639 4.38476 11.1068 4.34024 11.4453C4.29573 11.7838 4.27347 12.1354 4.27347 12.5C4.27347 12.8646 4.29573 13.2161 4.34024 13.5547C4.38476 13.8932 4.45153 14.2361 4.54057 14.5833ZM10.3098 14.5833H15.3312C15.3846 14.2361 15.4246 13.8932 15.4514 13.5547C15.4781 13.2161 15.4914 12.8646 15.4914 12.5C15.4914 12.1354 15.4781 11.7838 15.4514 11.4453C15.4246 11.1068 15.3846 10.7639 15.3312 10.4167H10.3098C10.2564 10.7639 10.2163 11.1068 10.1896 11.4453C10.1629 11.7838 10.1495 12.1354 10.1495 12.5C10.1495 12.8646 10.1629 13.2161 10.1896 13.5547C10.2163 13.8932 10.2564 14.2361 10.3098 14.5833ZM17.4679 14.5833H21.1004C21.1894 14.2361 21.2562 13.8932 21.3007 13.5547C21.3452 13.2161 21.3675 12.8646 21.3675 12.5C21.3675 12.1354 21.3452 11.7838 21.3007 11.4453C21.2562 11.1068 21.1894 10.7639 21.1004 10.4167H17.4679C17.5213 10.7639 17.5614 11.1068 17.5881 11.4453C17.6148 11.7838 17.6282 12.1354 17.6282 12.5C17.6282 12.8646 17.6148 13.2161 17.5881 13.5547C17.5614 13.8932 17.5213 14.2361 17.4679 14.5833ZM17.0406 8.33333H20.1923C19.6759 7.46527 19.0304 6.71006 18.2558 6.0677C17.4813 5.42534 16.5954 4.94791 15.5983 4.63541C15.9188 5.20833 16.1992 5.80295 16.4396 6.41927C16.68 7.03558 16.8803 7.67361 17.0406 8.33333ZM10.7906 8.33333H14.8504C14.6367 7.56944 14.3607 6.84895 14.0224 6.17187C13.6841 5.49479 13.2834 4.84374 12.8205 4.21874C12.3575 4.84374 11.9569 5.49479 11.6186 6.17187C11.2802 6.84895 11.0042 7.56944 10.7906 8.33333ZM5.44868 8.33333H8.60039C8.76065 7.67361 8.96097 7.03558 9.20136 6.41927C9.44174 5.80295 9.72219 5.20833 10.0427 4.63541C9.04555 4.94791 8.15969 5.42534 7.38512 6.0677C6.61054 6.71006 5.96507 7.46527 5.44868 8.33333Z" fill="#1D1B20"/>
</svg>
