<svg width="25" height="24" viewBox="0 0 25 24" fill="none" xmlns="http://www.w3.org/2000/svg">
<path d="M22.4975 16.92V19.92C22.4986 20.1985 22.4416 20.4741 22.33 20.7293C22.2184 20.9845 22.0548 21.2136 21.8496 21.4018C21.6443 21.5901 21.4021 21.7335 21.1382 21.8227C20.8744 21.9119 20.5949 21.945 20.3175 21.92C17.2403 21.5856 14.2845 20.5341 11.6875 18.85C9.27132 17.3146 7.22283 15.2661 5.68749 12.85C3.99747 10.2412 2.94573 7.27097 2.61749 4.17997C2.5925 3.90344 2.62537 3.62474 2.71399 3.3616C2.80262 3.09846 2.94506 2.85666 3.13226 2.6516C3.31945 2.44653 3.5473 2.28268 3.80128 2.1705C4.05527 2.05831 4.32983 2.00024 4.60749 1.99997H7.60749C8.0928 1.9952 8.56328 2.16705 8.93125 2.48351C9.29922 2.79996 9.53957 3.23942 9.60749 3.71997C9.73411 4.68004 9.96894 5.6227 10.3075 6.52997C10.442 6.8879 10.4712 7.27689 10.3914 7.65086C10.3116 8.02482 10.1264 8.36809 9.85749 8.63998L8.58749 9.90997C10.011 12.4135 12.0839 14.4864 14.5875 15.91L15.8575 14.64C16.1294 14.3711 16.4726 14.1858 16.8466 14.1061C17.2206 14.0263 17.6096 14.0554 17.9675 14.19C18.8748 14.5285 19.8174 14.7634 20.7775 14.89C21.2633 14.9585 21.7069 15.2032 22.024 15.5775C22.3412 15.9518 22.5097 16.4296 22.4975 16.92Z" stroke="black" stroke-width="2" stroke-linecap="round" stroke-linejoin="round"/>
</svg>
