<svg width="31" height="31" viewBox="0 0 31 31" fill="none" xmlns="http://www.w3.org/2000/svg">
<path d="M9 29C9.55228 29 10 28.5523 10 28C10 27.4477 9.55228 27 9 27C8.44772 27 8 27.4477 8 28C8 28.5523 8.44772 29 9 29Z" stroke="black" stroke-width="2" stroke-linecap="round" stroke-linejoin="round"/>
<path d="M20 29C20.5523 29 21 28.5523 21 28C21 27.4477 20.5523 27 20 27C19.4477 27 19 27.4477 19 28C19 28.5523 19.4477 29 20 29Z" stroke="black" stroke-width="2" stroke-linecap="round" stroke-linejoin="round"/>
<path d="M1 8H5L7.68 21.39C7.77144 21.8504 8.02191 22.264 8.38755 22.5583C8.75318 22.8526 9.2107 23.009 9.68 23H19.4C19.8693 23.009 20.3268 22.8526 20.6925 22.5583C21.0581 22.264 21.3086 21.8504 21.4 21.39L23 13H6" stroke="black" stroke-width="2" stroke-linecap="round" stroke-linejoin="round"/>
<rect x="17.5" y="0.5" width="13" height="13" rx="6.5" fill="#F6C8BC"/>
<rect x="17.5" y="0.5" width="13" height="13" rx="6.5" stroke="white"/>
<path d="M21.6318 6.96973C21.6318 6.12337 21.7181 5.44303 21.8906 4.92871C22.0664 4.41113 22.3252 4.01237 22.667 3.73242C23.012 3.45247 23.445 3.3125 23.9658 3.3125C24.3499 3.3125 24.6868 3.39062 24.9766 3.54688C25.2663 3.69987 25.5055 3.92285 25.6943 4.21582C25.8831 4.50553 26.0312 4.86035 26.1387 5.28027C26.2461 5.69694 26.2998 6.26009 26.2998 6.96973C26.2998 7.80957 26.2135 8.48828 26.041 9.00586C25.8685 9.52018 25.6097 9.91895 25.2646 10.2021C24.9229 10.4821 24.4899 10.6221 23.9658 10.6221C23.2757 10.6221 22.7337 10.3747 22.3398 9.87988C21.8678 9.28418 21.6318 8.31413 21.6318 6.96973ZM22.5352 6.96973C22.5352 8.14486 22.6719 8.92773 22.9453 9.31836C23.222 9.70573 23.5622 9.89941 23.9658 9.89941C24.3695 9.89941 24.708 9.7041 24.9814 9.31348C25.2581 8.92285 25.3965 8.1416 25.3965 6.96973C25.3965 5.79134 25.2581 5.00846 24.9814 4.62109C24.708 4.23372 24.3662 4.04004 23.9561 4.04004C23.5524 4.04004 23.2301 4.21094 22.9893 4.55273C22.6865 4.98893 22.5352 5.7946 22.5352 6.96973Z" fill="white"/>
</svg>
