<svg width="48" height="48" viewBox="0 0 48 48" fill="none" xmlns="http://www.w3.org/2000/svg">
<path d="M26 29.5001H4C3.18 29.5001 2.5 28.8201 2.5 28.0001V12.0001C2.5 6.76012 6.76 2.50012 12 2.50012H30C30.82 2.50012 31.5 3.18012 31.5 4.00012V24.0001C31.5 27.0401 29.04 29.5001 26 29.5001ZM5.5 26.5001H26C27.38 26.5001 28.5 25.3801 28.5 24.0001V5.50012H12C8.42 5.50012 5.5 8.42012 5.5 12.0001V26.5001Z" fill="#F6C8BC"/>
<path d="M38 41.5001H36C35.18 41.5001 34.5 40.8201 34.5 40.0001C34.5 38.6201 33.38 37.5001 32 37.5001C30.62 37.5001 29.5 38.6201 29.5 40.0001C29.5 40.8201 28.82 41.5001 28 41.5001H20C19.18 41.5001 18.5 40.8201 18.5 40.0001C18.5 38.6201 17.38 37.5001 16 37.5001C14.62 37.5001 13.5 38.6201 13.5 40.0001C13.5 40.8201 12.82 41.5001 12 41.5001H10C5.86 41.5001 2.5 38.1401 2.5 34.0001V28.0001C2.5 27.1801 3.18 26.5001 4 26.5001H26C27.38 26.5001 28.5 25.3801 28.5 24.0001V10.0001C28.5 9.18012 29.18 8.50012 30 8.50012H33.68C35.66 8.50012 37.48 9.56015 38.46 11.2802L41.88 17.2601C42.14 17.7201 42.14 18.3001 41.88 18.7601C41.62 19.2201 41.12 19.5001 40.58 19.5001H38C37.72 19.5001 37.5 19.7201 37.5 20.0001V26.0001C37.5 26.2801 37.72 26.5001 38 26.5001H44C44.82 26.5001 45.5 27.1801 45.5 28.0001V34.0001C45.5 38.1401 42.14 41.5001 38 41.5001ZM37.3 38.5001H38C40.48 38.5001 42.5 36.4801 42.5 34.0001V29.5001H38C36.08 29.5001 34.5 27.9201 34.5 26.0001V20.0001C34.5 18.0801 36.06 16.5001 38 16.5001L35.86 12.7601C35.42 11.9801 34.58 11.5001 33.68 11.5001H31.5V24.0001C31.5 27.0401 29.04 29.5001 26 29.5001H5.5V34.0001C5.5 36.4801 7.52 38.5001 10 38.5001H10.7C11.36 36.2001 13.48 34.5001 16 34.5001C18.52 34.5001 20.64 36.2001 21.3 38.5001H26.72C27.38 36.2001 29.5 34.5001 32.02 34.5001C34.54 34.5001 36.64 36.2001 37.3 38.5001Z" fill="#F6C8BC"/>
<path d="M16 45.5C12.96 45.5 10.5 43.04 10.5 40C10.5 36.96 12.96 34.5 16 34.5C19.04 34.5 21.5 36.96 21.5 40C21.5 43.04 19.04 45.5 16 45.5ZM16 37.5C14.62 37.5 13.5 38.62 13.5 40C13.5 41.38 14.62 42.5 16 42.5C17.38 42.5 18.5 41.38 18.5 40C18.5 38.62 17.38 37.5 16 37.5Z" fill="#F6C8BC"/>
<path d="M32 45.5C28.96 45.5 26.5 43.04 26.5 40C26.5 36.96 28.96 34.5 32 34.5C35.04 34.5 37.5 36.96 37.5 40C37.5 43.04 35.04 45.5 32 45.5ZM32 37.5C30.62 37.5 29.5 38.62 29.5 40C29.5 41.38 30.62 42.5 32 42.5C33.38 42.5 34.5 41.38 34.5 40C34.5 38.62 33.38 37.5 32 37.5Z" fill="#F6C8BC"/>
<path d="M44 29.5H38C36.08 29.5 34.5 27.92 34.5 26V20C34.5 18.08 36.08 16.5 38 16.5H40.58C41.12 16.5 41.62 16.78 41.88 17.26L45.3 23.26C45.42 23.48 45.5 23.74 45.5 24V28C45.5 28.82 44.82 29.5 44 29.5ZM38 19.5C37.72 19.5 37.5 19.72 37.5 20V26C37.5 26.28 37.72 26.5 38 26.5H42.5V24.4L39.7 19.5H38Z" fill="#F6C8BC"/>
</svg>
