<svg width="20" height="18" viewBox="0 0 20 18" fill="none" xmlns="http://www.w3.org/2000/svg">
<path d="M19 10.583C18.7348 10.583 18.4804 10.676 18.2929 10.8414C18.1054 11.0067 18 11.2311 18 11.465V14.9927C18 15.2266 17.8946 15.4509 17.7071 15.6163C17.5196 15.7817 17.2652 15.8746 17 15.8746H3C2.73478 15.8746 2.48043 15.7817 2.29289 15.6163C2.10536 15.4509 2 15.2266 2 14.9927V11.465C2 11.2311 1.89464 11.0067 1.70711 10.8414C1.51957 10.676 1.26522 10.583 1 10.583C0.734784 10.583 0.48043 10.676 0.292893 10.8414C0.105357 11.0067 0 11.2311 0 11.465V14.9927C0 15.6944 0.316071 16.3673 0.87868 16.8635C1.44129 17.3597 2.20435 17.6384 3 17.6384H17C17.7956 17.6384 18.5587 17.3597 19.1213 16.8635C19.6839 16.3673 20 15.6944 20 14.9927V11.465C20 11.2311 19.8946 11.0067 19.7071 10.8414C19.5196 10.676 19.2652 10.583 19 10.583ZM9.29 12.0911C9.3851 12.1714 9.49725 12.2344 9.62 12.2763C9.7397 12.323 9.86913 12.3471 10 12.3471C10.1309 12.3471 10.2603 12.323 10.38 12.2763C10.5028 12.2344 10.6149 12.1714 10.71 12.0911L14.71 8.56345C14.8983 8.39738 15.0041 8.17214 15.0041 7.93729C15.0041 7.70243 14.8983 7.47719 14.71 7.31112C14.5217 7.14505 14.2663 7.05176 14 7.05176C13.7337 7.05176 13.4783 7.14505 13.29 7.31112L11 9.33954V0.881921C11 0.648021 10.8946 0.423701 10.7071 0.258309C10.5196 0.0929163 10.2652 0 10 0C9.73478 0 9.48043 0.0929163 9.29289 0.258309C9.10536 0.423701 9 0.648021 9 0.881921V9.33954L6.71 7.31112C6.61676 7.22889 6.50607 7.16367 6.38425 7.11916C6.26243 7.07466 6.13186 7.05176 6 7.05176C5.86814 7.05176 5.73757 7.07466 5.61575 7.11916C5.49393 7.16367 5.38324 7.22889 5.29 7.31112C5.19676 7.39335 5.1228 7.49097 5.07234 7.59841C5.02188 7.70585 4.99591 7.821 4.99591 7.93729C4.99591 8.05358 5.02188 8.16873 5.07234 8.27616C5.1228 8.3836 5.19676 8.48122 5.29 8.56345L9.29 12.0911Z" fill="black"/>
</svg>
