<svg width="25" height="24" viewBox="0 0 25 24" fill="none" xmlns="http://www.w3.org/2000/svg">
<path d="M24.4796 12C24.4796 5.37258 19.1086 0 12.4832 0C5.8577 0 0.486694 5.37258 0.486694 12C0.486694 18.6274 5.8577 24 12.4832 24C19.1086 24 24.4796 18.6274 24.4796 12Z" fill="black"/>
<path d="M20.0373 9.5134C19.9429 8.60187 19.7397 7.59422 18.992 7.06467C18.4129 6.65402 17.6517 6.63883 16.941 6.63968C15.4389 6.63968 13.9358 6.64221 12.4336 6.64305C10.9888 6.64474 9.54388 6.64558 8.09901 6.64727C7.49544 6.64727 6.90872 6.60089 6.34814 6.86229C5.8668 7.08659 5.48998 7.51327 5.26322 7.98801C4.94879 8.64825 4.88304 9.3962 4.84511 10.1264C4.77514 11.4562 4.78272 12.7894 4.86618 14.1183C4.92772 15.088 5.08367 16.1597 5.83308 16.7778C6.49735 17.3251 7.43474 17.3521 8.29627 17.3529C11.0309 17.3554 13.7664 17.358 16.5019 17.3597C16.8525 17.3605 17.2184 17.3538 17.5758 17.315C18.2789 17.2391 18.949 17.0375 19.4009 16.5164C19.8569 15.9911 19.9741 15.26 20.0432 14.5677C20.2118 12.888 20.2101 11.1923 20.0373 9.5134ZM10.8522 14.3544V9.64495L14.9289 11.9992L10.8522 14.3544Z" fill="white"/>
</svg>
